<?xml version="1.0" encoding="utf-8"?>
<!-- Generator: Adobe Illustrator 27.5.0, SVG Export Plug-In . SVG Version: 6.00 Build 0)  -->
<svg version="1.1" id="Layer_1" xmlns="http://www.w3.org/2000/svg" xmlns:xlink="http://www.w3.org/1999/xlink" x="0px" y="0px"
	 viewBox="0 0 3396 616" style="enable-background:new 0 0 3396 616;" xml:space="preserve">
<style type="text/css">
	.st0{fill:none;stroke:#99C6E4;stroke-width:2;}
	.st1{fill:none;stroke:#83B1D2;stroke-width:2;}
	.st2{fill:none;stroke:#8DCFEC;stroke-width:2;}
	.st3{fill:none;stroke:#2796D1;stroke-width:2;}
	.st4{fill:none;stroke:#1D78B7;stroke-width:2;}
	.st5{fill:none;stroke:#839FB1;stroke-width:2;}
	.st6{fill:none;stroke:#82BDE0;stroke-width:2;}
	.st7{fill:none;stroke:#85A7C3;stroke-width:2;}
	.st8{fill:none;stroke:#094674;stroke-width:2;}
	.st9{fill:none;stroke:#095895;stroke-width:2;}
	.st10{fill:none;stroke:#1D6696;stroke-width:2;}
	.st11{fill:none;stroke:#075083;stroke-width:2;}
	.st12{fill:none;stroke:#056FB2;stroke-width:2;}
	.st13{fill:none;stroke:#0865A3;stroke-width:2;}
	.st14{fill:#FFFFFF;}
</style>
<g>
	<path vector-effect="non-scaling-stroke" class="st0" d="M306.2,180.5l130.9,0"/>
	<path vector-effect="non-scaling-stroke" class="st1" d="M437.2,180.5l123.8,0c0.2,0,0.4-0.2,0.4-0.4c0-0.2-0.1-0.3-0.3-0.4
		c-9-2.6-18.2-4.9-27.5-6.9c-1.2-0.3-2.7-1-4.2-1.2c-3.8-0.5-7.5-2.1-11.1-3.4c-23.7-8.5-30.2-24.8-42.9-47.6
		c-9.1-16.3-21.7-29.4-37.9-39.4"/>
	<path vector-effect="non-scaling-stroke" class="st0" d="M437.5,81.2C415,67.1,388,58.7,362,54.3c-19.5-3.3-39.2-4.6-59-4"/>
	<path vector-effect="non-scaling-stroke" class="st2" d="M303,50.3c-45,3.3-84.5,19.5-118.6,48.6c-19.5,16.7-33.6,45.9-40.2,70.2
		c-3.4,12.5,22.1,9.8,28.1,9.5c7.4-0.4,12.6-0.1,19.3,1.2c0.5,0.1,0.9,0.5,0.8,1c-0.2,9.4-0.3,18.9-0.1,28.6
		c0.1,6.7,0,18.2,4.7,19.2c12.2,2.8,29.2,1.6,40.5,0.7c4.3-0.3,6.5-2.8,6.5-7.4c0-11.8,0-23.6,0-35.4c0-3.6,2.1-5,5.6-5.2
		c18.8-0.8,37.6-1.1,56.4-0.9"/>
	<path vector-effect="non-scaling-stroke" class="st3" d="M303,50.3c2.2,4.1,3.3,8.5,3.4,13.1c0.3,39,0.3,78-0.1,117"/>
	<path vector-effect="non-scaling-stroke" class="st4" d="M437.5,81.2c-0.6,33.1-0.7,66.2-0.3,99.3"/>
	<path vector-effect="non-scaling-stroke" class="st5" d="M602.6,342.9l-14.5,0.2c-0.9,0-1.6,0.7-1.6,1.6v13.8
		c0,0.4,0.3,0.8,0.8,0.9c8,0.8,33.2,3.8,33.2-10c0-60.2,0-120.4,0-180.6c0-5.6-0.5-9.5-1.5-11.7c-4.9-10.7-21.9-8.3-31.3-7.2
		c-0.7,0.1-1.1,0.6-1.2,1.3v13.8c0,0.5,0.4,1,1,1l14.1,0.3c1,0,1.7,0.8,1.7,1.8v174.2C603.2,342.6,603,342.9,602.6,342.9"/>
	<path vector-effect="non-scaling-stroke" class="st2" d="M142.8,186.4c0-4.8-3.9-8.7-8.7-8.8c0,0,0,0,0,0l-35-0.2
		c-4.8,0-8.7,3.9-8.8,8.7L90.2,221c0,4.8,3.9,8.7,8.7,8.8c0,0,0,0,0,0l35,0.2c4.8,0,8.7-3.9,8.8-8.7L142.8,186.4"/>
	<path vector-effect="non-scaling-stroke" class="st5" d="M2598.1,337.8c0-0.1,0.2-0.2,0.3-0.1c0.1,0,0.1,0.1,0.1,0.2l0,129.6
		c0,0.3,0.2,0.5,0.5,0.5h50c0.3,0,0.5-0.2,0.5-0.5c0,0,0,0,0,0l0-255.2c0-0.3-0.2-0.5-0.5-0.5h-51.9c-0.4,0-0.6,0.2-0.7,0.5
		l-64.7,184.2c-0.1,0.2-0.3,0.4-0.5,0.3c-0.1,0-0.2-0.1-0.3-0.3l-64.4-184.2c-0.1-0.4-0.4-0.5-0.8-0.5h-51.6c-0.3,0-0.5,0.2-0.3,0.5
		l91.6,255.2c0.1,0.4,0.4,0.6,0.8,0.6h50.6c0.4,0,0.6-0.2,0.7-0.5L2598.1,337.8"/>
	<path vector-effect="non-scaling-stroke" class="st5" d="M2838.1,232.9c-14.8-14.1-32.6-21.1-53.3-21.2c-35.3,0-70.6,0-106,0
		c-0.3,0-0.5,0.2-0.5,0.5v49c0,0.3,0.2,0.5,0.5,0.5l0,0c35.3,0,70.6,0,105.9,0c17.7,0,29.4,15.6,25.8,32.4
		c-2.3,10.9-12.8,20.5-24.5,20.5c-35.8,0-71.5,0-107.2,0c-0.3,0-0.5,0.2-0.5,0.5c0,0,0,0,0,0v152.3c0,0.3,0.2,0.5,0.5,0.5h49.8
		c0.3,0,0.5-0.2,0.5-0.5v-102c0-0.4,0.2-0.6,0.6-0.6c22.1,0.2,41.3,0.1,57.5-0.3C2854.7,362.8,2887.7,280,2838.1,232.9"/>
	<path vector-effect="non-scaling-stroke" class="st5" d="M2892.7,392.2c8.3,50,55.2,82,105.1,75.1c38.4-5.3,70.5-37.6,76.2-75.7
		c0.6-4.2,1-10.9,1-19.9c0-53.2,0-106.3,0-159.5c0-0.3-0.2-0.5-0.5-0.5h-49.7c-0.3,0-0.5,0.2-0.5,0.5c0,55.1,0,110.2,0,165.3
		c0,27.2-26.8,46.8-52.4,39.1c-4.5-1.3-10.7-4.1-13.9-7.6c-1.9-2-4.2-2.6-5.5-5.6c-0.1-0.3-0.3-0.5-0.6-0.7
		c-0.9-0.6-1.6-1.4-2.3-2.4c-4.9-8-7.3-16.6-7.3-25.8c0-54.1,0.1-108.1,0.1-162.2c0-0.3-0.2-0.5-0.5-0.5H2892
		c-0.3,0-0.5,0.2-0.5,0.5c-0.1,53.4-0.1,106.7,0,160.1C2891.6,381,2892,387.7,2892.7,392.2"/>
	<path vector-effect="non-scaling-stroke" class="st5" d="M3110,316.5c7.1,18.1,23.2,34.3,41,42.3c4.2,1.9,9.4,3.2,14.2,4.6
		c4.1,1.2,10.3,1.3,14.3,1.3c10.2,0.1,20.5,0.3,30.7,0.4c19.7,0.2,33.4,19.6,24.8,37.9c-6.2,13.1-17.6,15.8-31.2,15.8
		c-32.8,0-65.7,0-98.6,0c-0.3,0-0.5,0.2-0.5,0.5v48.2c0,0.3,0.2,0.5,0.5,0.5c37.3,0,74.5,0,111.8,0c8.4,0,19.6-3.2,25.3-5.9
		c30.5-14.1,48.4-43.4,45.4-77.4c-2.7-31.4-24.9-58.3-55.2-66.9c-14.1-4-32.5-3.4-47.8-3.1c-12.8,0.3-23.2-5.7-27.6-17.8
		c-5-13.9,2.6-29,16.4-33.9c2.5-0.9,6-1.3,10.6-1.3c29.7,0,59.4,0,89.1,0c0.3,0,0.5-0.2,0.5-0.5v-49c0-0.3-0.2-0.5-0.5-0.5
		c-28.2-0.1-56.5-0.1-84.7,0c-9.3,0-16,0.4-19.9,1c-32.3,5.4-61.1,33.5-63.2,67.4c0,0.1-0.2,1.9-0.7,5.6c-0.4,3.8,0.8,7.1,0.8,10.9
		C3105.7,303.3,3108.1,311.7,3110,316.5"/>
	<path vector-effect="non-scaling-stroke" class="st5" d="M955,213.2c-0.1,0-0.3,0.1-0.3,0.2l-64.9,184.9c-0.1,0.2-0.2,0.3-0.4,0.2
		c-0.1,0-0.2-0.1-0.2-0.2l-64.6-184.9c0-0.1-0.2-0.2-0.3-0.2h-52c-0.2,0-0.3,0.1-0.3,0.3c0,0,0,0.1,0,0.1l91.8,255.6
		c0,0.1,0.2,0.2,0.3,0.2h51.3c0.1,0,0.3-0.1,0.3-0.2l91.8-255.6c0.1-0.2,0-0.3-0.2-0.4c0,0-0.1,0-0.1,0H955"/>
	<path vector-effect="non-scaling-stroke" class="st5" d="M1087.2,213.5c0-0.1-0.1-0.3-0.3-0.3l0,0h-50.2c-0.1,0-0.3,0.1-0.3,0.3
		c0,0,0,0,0,0v255.7c0,0.1,0.1,0.3,0.3,0.3l0,0h50.2c0.1,0,0.3-0.1,0.3-0.3l0,0V213.5"/>
	<path vector-effect="non-scaling-stroke" class="st5" d="M1260.6,356.4c30.4-16.7,45.7-50.9,37.9-84.6c-8-34.8-40.1-58.6-75.2-58.6
		c-35.4,0-70.7,0-106,0.1c-0.3,0-0.5,0.2-0.5,0.5v49c0,0.3,0.2,0.5,0.5,0.5c35.3,0,70.5,0,105.8,0c28,0,36.9,37.6,12.1,50.3
		c-3.5,1.8-7,2.7-10.7,2.7c-35.8,0-71.5,0-107.3,0c-0.3,0-0.5,0.2-0.5,0.5V366c0,0.3,0.2,0.5,0.5,0.5h92.6c0.4,0,0.6,0.2,0.8,0.5
		l37.1,102c0.1,0.3,0.3,0.4,0.6,0.4h51.7c0.3,0,0.4-0.1,0.3-0.4L1260.4,357C1260.3,356.8,1260.3,356.6,1260.6,356.4"/>
	<path vector-effect="non-scaling-stroke" class="st5" d="M1396.4,263.2c0.2,0,0.3,0.1,0.3,0.3v205.6c0,0.2,0.1,0.3,0.3,0.3h50.1
		c0.2,0,0.3-0.1,0.3-0.3l0.2-205.6c0-0.2,0.1-0.3,0.3-0.3h65.4c0.2,0,0.3-0.1,0.3-0.3l-0.2-49.3c0-0.2-0.1-0.3-0.3-0.3h-182.8
		c-0.2,0-0.3,0.1-0.3,0.3v49.3c0,0.2,0.1,0.3,0.3,0.3H1396.4"/>
	<path vector-effect="non-scaling-stroke" class="st5" d="M1634.7,420.1c-0.9-1-6.8-0.5-8.8-1.1c-17.3-5.4-27.6-16.4-30.8-33.1
		c-0.7-3.7-1.1-10.4-1.1-19.9c0-50.7,0.1-101.5,0-152.2c0-0.3-0.2-0.5-0.5-0.5h-49.7c-0.3,0-0.5,0.2-0.5,0.5
		c-0.1,52.9-0.1,105.9,0,158.8c0,9,0.3,15.7,1,20c6.3,42.7,43.5,75.8,86.7,77.3c30.4,1,55.4-9.9,74.8-33c11-13,17.6-27.7,20-44.1
		c0.6-4.2,0.9-10.8,0.9-20c0-53,0-106,0-159c0-0.3-0.2-0.5-0.5-0.5h-49.7c-0.3,0-0.5,0.2-0.5,0.5c0,53.8,0,107.5,0,161.3
		c0,5.8-0.4,10.4-1.3,13.7c-4.2,16-19.1,30.7-36.9,30.8c-0.3,0-0.6,0.1-0.9,0.2l-1.4,0.6C1635.2,420.4,1634.9,420.4,1634.7,420.1"/>
	<path vector-effect="non-scaling-stroke" class="st5" d="M1874.4,283.8l65,185.3c0.1,0.3,0.3,0.4,0.6,0.4h51.1
		c0.4,0,0.7-0.3,0.7-0.7c0-0.1,0-0.2,0-0.2l-91.3-254.7c-0.1-0.4-0.4-0.6-0.9-0.6h-50.6c-0.4,0-0.7,0.2-0.9,0.6l-91.4,255.1
		c-0.1,0.4,0,0.6,0.4,0.6l52.1,0c0.1,0,0.2-0.1,0.2-0.2c0-0.1,0-0.2,0-0.3c0-0.4,0.1-0.8,0.2-1.1l64.3-184.2c0-0.1,0.2-0.2,0.3-0.1
		C1874.4,283.7,1874.4,283.7,1874.4,283.8"/>
	<path vector-effect="non-scaling-stroke" class="st5" d="M2219.9,252.3c-8.2-8.9-16.9-16.5-27.6-22.4
		c-64.6-36-144.1-11.8-178.2,53.4c-37.9,72.6,4,163.2,83.1,182.6c40,9.8,83.6,0.9,114.4-27.2c3-2.7,5.8-5.2,8.3-7.5
		c0.7-0.6,0.7-1.3,0.1-1.9l-32.8-33.5c-0.2-0.2-0.4-0.2-0.6-0.1c-0.9,0.4-1.8,1-2.7,1.9c-20.8,19.8-49.2,26.9-76.8,19.1
		c-25.6-7.2-46.8-29.4-53.6-55c-2.8-10.5-2.7-20.4-1.7-30.8c0.3-3.5,0.9-6.6,1.6-9.2c12.4-45.1,58.4-69,102.9-53.5
		c5,1.7,15.8,6.5,19.5,10.6c0.2,0.2,0.5,0.4,0.8,0.5c2.1,0.6,2.2,2.5,4.2,3.1c0.3,0.1,0.6,0.3,0.8,0.5c1.4,1.5,3,2.8,4.8,3.8
		c0.3,0.2,0.6,0.1,0.8-0.1l32.7-32.7C2220.3,253.4,2220.3,252.7,2219.9,252.3"/>
	<path vector-effect="non-scaling-stroke" class="st5" d="M2284.6,469.5c0.1,0,0.3-0.1,0.3-0.2l64.7-185.3c0.1-0.2,0.3-0.3,0.4-0.2
		c0.1,0,0.2,0.1,0.2,0.2l65,185.3c0,0.1,0.2,0.2,0.3,0.2l51.9,0c0.2,0,0.3-0.1,0.3-0.3c0,0,0-0.1,0-0.1l-91.6-255.6
		c0-0.1-0.2-0.2-0.3-0.2h-51.4c-0.1,0-0.3,0.1-0.3,0.2l-91.6,255.6c-0.1,0.2,0,0.4,0.2,0.4c0,0,0.1,0,0.1,0L2284.6,469.5"/>
	<path vector-effect="non-scaling-stroke" class="st2" d="M72.5,229.2c0-4.7-3.9-8.5-8.6-8.5c0,0,0,0,0,0l-13.7,0.1
		c-4.7,0-8.5,3.9-8.5,8.6c0,0,0,0,0,0l0.1,13.7c0,4.7,3.9,8.5,8.6,8.5c0,0,0,0,0,0l13.7-0.1c4.7,0,8.5-3.9,8.5-8.6c0,0,0,0,0,0
		L72.5,229.2"/>
	<path vector-effect="non-scaling-stroke" class="st2" d="M193.5,235.7c0-3.6-3-6.6-6.6-6.6h0l-38.3,0.1c-3.6,0-6.6,3-6.6,6.6l0,0
		l0.1,38.4c0,3.6,3,6.6,6.6,6.6h0l38.3-0.1c3.6,0,6.6-3,6.6-6.6l0,0L193.5,235.7"/>
	<path vector-effect="non-scaling-stroke" class="st1" d="M315.8,253.5c-21.5-0.1-42.9-0.1-64.4,0c-4.1,0-7.2,2-7.2,6.2
		c0,8,0,13.6-0.1,16.8c0,0.3-0.1,0.6-0.3,0.9c-1.3,1.7-2.9,2.5-4.9,2.5c-14.6-0.1-29.2,0-43.8,0.2"/>
	<path vector-effect="non-scaling-stroke" class="st6" d="M194.9,280.2c-2.3,1.9-3.7,3.8-4.1,5.8c-2.2,9.4-1.4,21.1-0.8,30.9
		c0.2,4.2,0,7-0.6,8.6c-3.9,9.3-25.5,6.4-33,6.2c-0.6,0-1.2,0.5-1.2,1.1c0,0.2,0,0.4,0.1,0.5c7.6,15.5,17,29.8,28.3,42.7
		c4.4,5,7.2,8.4,8.5,10.4c11.6,16.6,16.2,38.5,15.1,58.9c-0.7,12.3-2.5,20-4.7,30.2c-2.7,12.8,0.1,17.4,12.5,22
		c34.5,12.7,69.2,24.8,104.1,36.5"/>
	<path vector-effect="non-scaling-stroke" class="st7" d="M319,534c21.1,7.8,42.2,15.4,63.5,22.6c5.9,2,10.2,2.9,12.9,2.8
		c9.5-0.5,12.9-8.2,12.6-16.7c-0.6-22.2,0.1-52.3,25.4-62.1c2.6-1,5.2-0.6,7.9-0.7"/>
	<path vector-effect="non-scaling-stroke" class="st5" d="M441.2,480c18.7,1.9,66.1,6.9,75.9-15c4-9.1,4.2-18.6,0.6-28.5
		c-2.5-6.9-6.4-13.6-3.2-20.9c2.7-6.2,14.2-12,13.7-18.6c-0.2-2-1.3-4.1-2.2-6.1c-0.2-0.3-0.1-0.7,0.1-1c3-3.9,4.9-9.6,2.3-14.2
		c-2-3.6-2.8-7.5-2.4-11.8"/>
	<path vector-effect="non-scaling-stroke" class="st0" d="M526,364c0.7-2.3,1-4.6,0.9-7"/>
	<path vector-effect="non-scaling-stroke" class="st5" d="M527,357c-0.2-2,0.1-4,0.9-5.7c0.2-0.3,0.4-0.5,0.8-0.6
		c10.5-2.4,35.2-7.4,27.6-24.5c-0.2-0.5-0.7-0.8-1.3-0.8c-15.5,0.4-31,0.2-46.4-0.5c-4.9-0.2-10-1.1-15.1-1.6"/>
	<path vector-effect="non-scaling-stroke" class="st7" d="M493.5,323.2c-2.2-0.6-4.4-0.8-6.4-1.5c-25.7-9.1-44.3-26.5-65-43.4
		c-15.8-12.9-29.5-20.9-49.7-23.9c-17.6-2.6-37.8-1.6-56.7-1"/>
	<path vector-effect="non-scaling-stroke" class="st8" d="M493.5,323.2l-2.6,0.4c-0.4,0.1-0.6,0.3-0.5,0.7
		c5.1,19.9,18.2,34.2,31.3,51.2c0.5,0.7,0.6,1.5,0.2,2.2c-2.2,4.8-2.7,8.1-3.5,13.2c-1,5.9-4.5,6.4-10.2,8
		c-8.1,2.3-17.3,3.4-24.6,5.6c-10.6,3.2-21.3,7.6-31.4,10.7c-17.7,5.4-33.9,11.1-50.4,19.5"/>
	<path vector-effect="non-scaling-stroke" class="st9" d="M401.8,434.8c-30-36.4-50.7-77.1-67.8-118.8c-4-9.7-7.4-20.2-10.1-31.3
		c-2.3-9.3-4.7-16.8-7.5-25.2c-0.6-2-0.9-4-0.7-6"/>
	<path vector-effect="non-scaling-stroke" class="st10" d="M527,357c-0.9,2.3-1.2,4.6-0.9,7"/>
	<path vector-effect="non-scaling-stroke" class="st8" d="M441.2,480l-4.9-0.8c-0.3-0.1-0.6-0.2-0.8-0.5L410,446.2"/>
	<path vector-effect="non-scaling-stroke" class="st11" d="M401.8,434.8l8.2,11.4"/>
	<path vector-effect="non-scaling-stroke" class="st9" d="M410,446.2c-3.2,5.7-7,7.8-13.7,9.5c-11.6,3-24.4,7-34.9,9.2
		c-17.6,3.8-35.7,5.9-53.6,8.1c-3.1,0.4-5.6,1-7.5,1.8c-1.1,0.5-8,4.1-8.1,5c0,0.4,0.1,0.6,0.5,0.4l4.6-1.6c1.3-0.5,1.4-0.3,0.2,0.5
		l-8.7,6"/>
	<path vector-effect="non-scaling-stroke" class="st12" d="M289,485.3c-41.3-57.8-70.9-121.1-88.9-189.8c-1.2-4.7-2.7-8.5-4.8-12.5
		c-0.3-0.5-0.4-1.4-0.4-2.8"/>
	<path vector-effect="non-scaling-stroke" class="st13" d="M289,485.3c8.2,12.7,18.5,26.8,30.9,42.3c1.9,2.3,1.5,4.5-1,6.4"/>
	<path vector-effect="non-scaling-stroke" class="st2" d="M123,269.7c0-4.3-3.4-7.8-7.8-7.9l-24.5-0.2c-4.3,0-7.8,3.4-7.9,7.8
		l-0.2,23.8c0,4.3,3.4,7.8,7.8,7.9l24.5,0.2c4.3,0,7.8-3.4,7.9-7.8L123,269.7"/>
</g>
<path class="st14" d="M0,0h3396v616H0V0z M306.2,180.5l130.9,0l123.8,0c0.2,0,0.4-0.2,0.4-0.4c0-0.2-0.1-0.3-0.3-0.4
	c-9-2.6-18.2-4.9-27.5-6.9c-1.2-0.3-2.7-1-4.2-1.2c-3.8-0.5-7.5-2.1-11.1-3.4c-23.7-8.5-30.2-24.8-42.9-47.6
	c-9.1-16.3-21.7-29.4-37.9-39.4C415,67.1,388,58.7,362,54.3c-19.5-3.3-39.2-4.6-59-4c-45,3.3-84.5,19.5-118.6,48.6
	c-19.5,16.7-33.6,45.9-40.2,70.2c-3.4,12.5,22.1,9.8,28.1,9.5c7.4-0.4,12.6-0.1,19.3,1.2c0.5,0.1,0.9,0.5,0.8,1
	c-0.2,9.4-0.3,18.9-0.1,28.6c0.1,6.7,0,18.2,4.7,19.2c12.2,2.8,29.2,1.6,40.5,0.7c4.3-0.3,6.5-2.8,6.5-7.4c0-11.8,0-23.6,0-35.4
	c0-3.6,2.1-5,5.6-5.2C268.6,180.6,287.4,180.3,306.2,180.5z M602.6,342.9l-14.5,0.2c-0.9,0-1.6,0.7-1.6,1.6v13.8
	c0,0.4,0.3,0.8,0.8,0.9c8,0.8,33.2,3.8,33.2-10c0-60.2,0-120.4,0-180.6c0-5.6-0.5-9.5-1.5-11.7c-4.9-10.7-21.9-8.3-31.3-7.2
	c-0.7,0.1-1.1,0.6-1.2,1.3v13.8c0,0.5,0.4,1,1,1l14.1,0.3c1,0,1.7,0.8,1.7,1.8v174.2C603.2,342.6,603,342.9,602.6,342.9z
	 M142.8,186.4c0-4.8-3.9-8.7-8.7-8.8c0,0,0,0,0,0l-35-0.2c-4.8,0-8.7,3.9-8.8,8.7L90.2,221c0,4.8,3.9,8.7,8.7,8.8c0,0,0,0,0,0
	l35,0.2c4.8,0,8.7-3.9,8.8-8.7L142.8,186.4z M2598.1,337.8c0-0.1,0.2-0.2,0.3-0.1c0.1,0,0.1,0.1,0.1,0.2l0,129.6
	c0,0.3,0.2,0.5,0.5,0.5h50c0.3,0,0.5-0.2,0.5-0.5c0,0,0,0,0,0l0-255.2c0-0.3-0.2-0.5-0.5-0.5h-51.9c-0.4,0-0.6,0.2-0.7,0.5
	l-64.7,184.2c-0.1,0.2-0.3,0.4-0.5,0.3c-0.1,0-0.2-0.1-0.3-0.3l-64.4-184.2c-0.1-0.4-0.4-0.5-0.8-0.5h-51.6c-0.3,0-0.5,0.2-0.3,0.5
	l91.6,255.2c0.1,0.4,0.4,0.6,0.8,0.6h50.6c0.4,0,0.6-0.2,0.7-0.5L2598.1,337.8z M2838.1,232.9c-14.8-14.1-32.6-21.1-53.3-21.2
	c-35.3,0-70.6,0-106,0c-0.3,0-0.5,0.2-0.5,0.5v49c0,0.3,0.2,0.5,0.5,0.5l0,0c35.3,0,70.6,0,105.9,0c17.7,0,29.4,15.6,25.8,32.4
	c-2.3,10.9-12.8,20.5-24.5,20.5c-35.8,0-71.5,0-107.2,0c-0.3,0-0.5,0.2-0.5,0.5c0,0,0,0,0,0v152.3c0,0.3,0.2,0.5,0.5,0.5h49.8
	c0.3,0,0.5-0.2,0.5-0.5v-102c0-0.4,0.2-0.6,0.6-0.6c22.1,0.2,41.3,0.1,57.5-0.3C2854.7,362.8,2887.7,280,2838.1,232.9z
	 M2892.7,392.2c8.3,50,55.2,82,105.1,75.1c38.4-5.3,70.5-37.6,76.2-75.7c0.6-4.2,1-10.9,1-19.9c0-53.2,0-106.3,0-159.5
	c0-0.3-0.2-0.5-0.5-0.5h-49.7c-0.3,0-0.5,0.2-0.5,0.5c0,55.1,0,110.2,0,165.3c0,27.2-26.8,46.8-52.4,39.1
	c-4.5-1.3-10.7-4.1-13.9-7.6c-1.9-2-4.2-2.6-5.5-5.6c-0.1-0.3-0.3-0.5-0.6-0.7c-0.9-0.6-1.6-1.4-2.3-2.4c-4.9-8-7.3-16.6-7.3-25.8
	c0-54.1,0.1-108.1,0.1-162.2c0-0.3-0.2-0.5-0.5-0.5H2892c-0.3,0-0.5,0.2-0.5,0.5c-0.1,53.4-0.1,106.7,0,160.1
	C2891.6,381,2892,387.7,2892.7,392.2z M3110,316.5c7.1,18.1,23.2,34.3,41,42.3c4.2,1.9,9.4,3.2,14.2,4.6c4.1,1.2,10.3,1.3,14.3,1.3
	c10.2,0.1,20.5,0.3,30.7,0.4c19.7,0.2,33.4,19.6,24.8,37.9c-6.2,13.1-17.6,15.8-31.2,15.8c-32.8,0-65.7,0-98.6,0
	c-0.3,0-0.5,0.2-0.5,0.5v48.2c0,0.3,0.2,0.5,0.5,0.5c37.3,0,74.5,0,111.8,0c8.4,0,19.6-3.2,25.3-5.9c30.5-14.1,48.4-43.4,45.4-77.4
	c-2.7-31.4-24.9-58.3-55.2-66.9c-14.1-4-32.5-3.4-47.8-3.1c-12.8,0.3-23.2-5.7-27.6-17.8c-5-13.9,2.6-29,16.4-33.9
	c2.5-0.9,6-1.3,10.6-1.3c29.7,0,59.4,0,89.1,0c0.3,0,0.5-0.2,0.5-0.5v-49c0-0.3-0.2-0.5-0.5-0.5c-28.2-0.1-56.5-0.1-84.7,0
	c-9.3,0-16,0.4-19.9,1c-32.3,5.4-61.1,33.5-63.2,67.4c0,0.1-0.2,1.9-0.7,5.6c-0.4,3.8,0.8,7.1,0.8,10.9
	C3105.7,303.3,3108.1,311.7,3110,316.5z M955,213.2c-0.1,0-0.3,0.1-0.3,0.2l-64.9,184.9c-0.1,0.2-0.2,0.3-0.4,0.2
	c-0.1,0-0.2-0.1-0.2-0.2l-64.6-184.9c0-0.1-0.2-0.2-0.3-0.2h-52c-0.2,0-0.3,0.1-0.3,0.3c0,0,0,0.1,0,0.1l91.8,255.6
	c0,0.1,0.2,0.2,0.3,0.2h51.3c0.1,0,0.3-0.1,0.3-0.2l91.8-255.6c0.1-0.2,0-0.3-0.2-0.4c0,0-0.1,0-0.1,0H955z M1087.2,213.5
	c0-0.1-0.1-0.3-0.3-0.3l0,0h-50.2c-0.1,0-0.3,0.1-0.3,0.3c0,0,0,0,0,0v255.7c0,0.1,0.1,0.3,0.3,0.3l0,0h50.2c0.1,0,0.3-0.1,0.3-0.3
	l0,0V213.5z M1260.6,356.4c30.4-16.7,45.7-50.9,37.9-84.6c-8-34.8-40.1-58.6-75.2-58.6c-35.4,0-70.7,0-106,0.1
	c-0.3,0-0.5,0.2-0.5,0.5v49c0,0.3,0.2,0.5,0.5,0.5c35.3,0,70.5,0,105.8,0c28,0,36.9,37.6,12.1,50.3c-3.5,1.8-7,2.7-10.7,2.7
	c-35.8,0-71.5,0-107.3,0c-0.3,0-0.5,0.2-0.5,0.5V366c0,0.3,0.2,0.5,0.5,0.5h92.6c0.4,0,0.6,0.2,0.8,0.5l37.1,102
	c0.1,0.3,0.3,0.4,0.6,0.4h51.7c0.3,0,0.4-0.1,0.3-0.4L1260.4,357C1260.3,356.8,1260.3,356.6,1260.6,356.4z M1396.4,263.2
	c0.2,0,0.3,0.1,0.3,0.3v205.6c0,0.2,0.1,0.3,0.3,0.3h50.1c0.2,0,0.3-0.1,0.3-0.3l0.2-205.6c0-0.2,0.1-0.3,0.3-0.3h65.4
	c0.2,0,0.3-0.1,0.3-0.3l-0.2-49.3c0-0.2-0.1-0.3-0.3-0.3h-182.8c-0.2,0-0.3,0.1-0.3,0.3v49.3c0,0.2,0.1,0.3,0.3,0.3H1396.4z
	 M1634.7,420.1c-0.9-1-6.8-0.5-8.8-1.1c-17.3-5.4-27.6-16.4-30.8-33.1c-0.7-3.7-1.1-10.4-1.1-19.9c0-50.7,0.1-101.5,0-152.2
	c0-0.3-0.2-0.5-0.5-0.5h-49.7c-0.3,0-0.5,0.2-0.5,0.5c-0.1,52.9-0.1,105.9,0,158.8c0,9,0.3,15.7,1,20c6.3,42.7,43.5,75.8,86.7,77.3
	c30.4,1,55.4-9.9,74.8-33c11-13,17.6-27.7,20-44.1c0.6-4.2,0.9-10.8,0.9-20c0-53,0-106,0-159c0-0.3-0.2-0.5-0.5-0.5h-49.7
	c-0.3,0-0.5,0.2-0.5,0.5c0,53.8,0,107.5,0,161.3c0,5.8-0.4,10.4-1.3,13.7c-4.2,16-19.1,30.7-36.9,30.8c-0.3,0-0.6,0.1-0.9,0.2
	l-1.4,0.6C1635.2,420.4,1634.9,420.4,1634.7,420.1z M1874.4,283.8l65,185.3c0.1,0.3,0.3,0.4,0.6,0.4h51.1c0.4,0,0.7-0.3,0.7-0.7
	c0-0.1,0-0.2,0-0.2l-91.3-254.7c-0.1-0.4-0.4-0.6-0.9-0.6h-50.6c-0.4,0-0.7,0.2-0.9,0.6l-91.4,255.1c-0.1,0.4,0,0.6,0.4,0.6l52.1,0
	c0.1,0,0.2-0.1,0.2-0.2c0-0.1,0-0.2,0-0.3c0-0.4,0.1-0.8,0.2-1.1l64.3-184.2c0-0.1,0.2-0.2,0.3-0.1
	C1874.4,283.7,1874.4,283.7,1874.4,283.8z M2219.9,252.3c-8.2-8.9-16.9-16.5-27.6-22.4c-64.6-36-144.1-11.8-178.2,53.4
	c-37.9,72.6,4,163.2,83.1,182.6c40,9.8,83.6,0.9,114.4-27.2c3-2.7,5.8-5.2,8.3-7.5c0.7-0.6,0.7-1.3,0.1-1.9l-32.8-33.5
	c-0.2-0.2-0.4-0.2-0.6-0.1c-0.9,0.4-1.8,1-2.7,1.9c-20.8,19.8-49.2,26.9-76.8,19.1c-25.6-7.2-46.8-29.4-53.6-55
	c-2.8-10.5-2.7-20.4-1.7-30.8c0.3-3.5,0.9-6.6,1.6-9.2c12.4-45.1,58.4-69,102.9-53.5c5,1.7,15.8,6.5,19.5,10.6
	c0.2,0.2,0.5,0.4,0.8,0.5c2.1,0.6,2.2,2.5,4.2,3.1c0.3,0.1,0.6,0.3,0.8,0.5c1.4,1.5,3,2.8,4.8,3.8c0.3,0.2,0.6,0.1,0.8-0.1
	l32.7-32.7C2220.3,253.4,2220.3,252.7,2219.9,252.3z M2284.6,469.5c0.1,0,0.3-0.1,0.3-0.2l64.7-185.3c0.1-0.2,0.3-0.3,0.4-0.2
	c0.1,0,0.2,0.1,0.2,0.2l65,185.3c0,0.1,0.2,0.2,0.3,0.2l51.9,0c0.2,0,0.3-0.1,0.3-0.3c0,0,0-0.1,0-0.1l-91.6-255.6
	c0-0.1-0.2-0.2-0.3-0.2h-51.4c-0.1,0-0.3,0.1-0.3,0.2l-91.6,255.6c-0.1,0.2,0,0.4,0.2,0.4c0,0,0.1,0,0.1,0L2284.6,469.5z
	 M72.5,229.2c0-4.7-3.9-8.5-8.6-8.5c0,0,0,0,0,0l-13.7,0.1c-4.7,0-8.5,3.9-8.5,8.6c0,0,0,0,0,0l0.1,13.7c0,4.7,3.9,8.5,8.6,8.5
	c0,0,0,0,0,0l13.7-0.1c4.7,0,8.5-3.9,8.5-8.6c0,0,0,0,0,0L72.5,229.2z M193.5,235.7c0-3.6-3-6.6-6.6-6.6h0l-38.3,0.1
	c-3.6,0-6.6,3-6.6,6.6l0,0l0.1,38.4c0,3.6,3,6.6,6.6,6.6h0l38.3-0.1c3.6,0,6.6-3,6.6-6.6l0,0L193.5,235.7z M315.8,253.5
	c-21.5-0.1-42.9-0.1-64.4,0c-4.1,0-7.2,2-7.2,6.2c0,8,0,13.6-0.1,16.8c0,0.3-0.1,0.6-0.3,0.9c-1.3,1.7-2.9,2.5-4.9,2.5
	c-14.6-0.1-29.2,0-43.8,0.2c-2.3,1.9-3.7,3.8-4.1,5.8c-2.2,9.4-1.4,21.1-0.8,30.9c0.2,4.2,0,7-0.6,8.6c-3.9,9.3-25.5,6.4-33,6.2
	c-0.6,0-1.2,0.5-1.2,1.1c0,0.2,0,0.4,0.1,0.5c7.6,15.5,17,29.8,28.3,42.7c4.4,5,7.2,8.4,8.5,10.4c11.6,16.6,16.2,38.5,15.1,58.9
	c-0.7,12.3-2.5,20-4.7,30.2c-2.7,12.8,0.1,17.4,12.5,22c34.5,12.7,69.2,24.8,104.1,36.5c21.1,7.8,42.2,15.4,63.5,22.6
	c5.9,2,10.2,2.9,12.9,2.8c9.5-0.5,12.9-8.2,12.6-16.7c-0.6-22.2,0.1-52.3,25.4-62.1c2.6-1,5.2-0.6,7.9-0.7
	c18.7,1.9,66.1,6.9,75.9-15c4-9.1,4.2-18.6,0.6-28.5c-2.5-6.9-6.4-13.6-3.2-20.9c2.7-6.2,14.2-12,13.7-18.6c-0.2-2-1.3-4.1-2.2-6.1
	c-0.2-0.3-0.1-0.7,0.1-1c3-3.9,4.9-9.6,2.3-14.2c-2-3.6-2.8-7.5-2.4-11.8c0.7-2.3,1-4.6,0.9-7c-0.2-2,0.1-4,0.9-5.7
	c0.2-0.3,0.4-0.5,0.8-0.6c10.5-2.4,35.2-7.4,27.6-24.5c-0.2-0.5-0.7-0.8-1.3-0.8c-15.5,0.4-31,0.2-46.4-0.5
	c-4.9-0.2-10-1.1-15.1-1.6c-2.2-0.6-4.4-0.8-6.4-1.5c-25.7-9.1-44.3-26.5-65-43.4c-15.8-12.9-29.5-20.9-49.7-23.9
	C354.9,251.9,334.7,252.9,315.8,253.5z M123,269.7c0-4.3-3.4-7.8-7.8-7.9l-24.5-0.2c-4.3,0-7.8,3.4-7.9,7.8l-0.2,23.8
	c0,4.3,3.4,7.8,7.8,7.9l24.5,0.2c4.3,0,7.8-3.4,7.9-7.8L123,269.7z"/>
<path d="M303,50.3c2.2,4.1,3.3,8.5,3.4,13.1c0.3,39,0.3,78-0.1,117c-18.8-0.2-37.6,0.1-56.4,0.9c-3.5,0.1-5.6,1.6-5.6,5.2
	c0,11.8,0,23.6,0,35.4c0,4.6-2.2,7-6.5,7.4c-11.4,0.9-28.3,2.1-40.5-0.7c-4.7-1.1-4.6-12.5-4.7-19.2c-0.2-9.7-0.2-19.2,0.1-28.6
	c0-0.5-0.3-0.9-0.8-1c-6.7-1.3-11.9-1.7-19.3-1.2c-6.1,0.4-31.5,3.1-28.1-9.5c6.6-24.3,20.6-53.5,40.2-70.2
	C218.5,69.8,258,53.6,303,50.3z"/>
<path d="M303,50.3c19.8-0.6,39.5,0.7,59,4c26,4.4,53,12.8,75.5,26.9c-0.6,33.1-0.7,66.2-0.3,99.3l-130.9,0c0.4-39,0.4-78,0.1-117
	C306.3,58.8,305.2,54.4,303,50.3z"/>
<path d="M437.5,81.2c16.2,10,28.8,23.1,37.9,39.4c12.7,22.8,19.2,39.1,42.9,47.6c3.6,1.3,7.2,3,11.1,3.4c1.5,0.2,2.9,0.9,4.2,1.2
	c9.4,2,18.5,4.3,27.5,6.9c0.2,0.1,0.3,0.3,0.3,0.5c-0.1,0.2-0.2,0.3-0.4,0.3l-123.8,0C436.7,147.4,436.8,114.3,437.5,81.2z"/>
<path d="M602.6,342.9c0.4,0,0.6-0.3,0.6-0.6V168c0-1-0.8-1.7-1.7-1.8l-14.1-0.3c-0.5,0-1-0.5-1-1v-13.8c0-0.7,0.5-1.2,1.2-1.3
	c9.5-1.1,26.4-3.5,31.3,7.2c1,2.2,1.5,6.1,1.5,11.7c0,60.2,0,120.4,0,180.6c0,13.8-25.2,10.8-33.2,10c-0.5,0-0.8-0.4-0.8-0.9v-13.8
	c0-0.9,0.7-1.6,1.6-1.6L602.6,342.9z"/>
<path d="M99.1,177.4l35,0.2c4.8,0,8.7,3.9,8.7,8.8l-0.2,34.9c0,4.8-3.9,8.7-8.8,8.7l-35-0.2c-4.8,0-8.7-3.9-8.7-8.8l0.2-34.9
	C90.4,181.3,94.3,177.4,99.1,177.4z"/>
<path d="M2598.1,337.8l-40.7,129.7c-0.1,0.3-0.3,0.5-0.7,0.5h-50.6c-0.4,0-0.7-0.2-0.8-0.6l-91.6-255.2c-0.1-0.3,0-0.5,0.3-0.5h51.6
	c0.4,0,0.6,0.2,0.8,0.5l64.4,184.2c0.1,0.2,0.3,0.4,0.5,0.3c0.1,0,0.2-0.1,0.3-0.3l64.7-184.2c0.1-0.3,0.4-0.5,0.7-0.5h51.9
	c0.3,0,0.5,0.2,0.5,0.5l0,255.2c0,0.3-0.2,0.5-0.5,0.5l0,0h-50c-0.3,0-0.5-0.2-0.5-0.5l0-129.6c0-0.1-0.1-0.2-0.2-0.2
	C2598.2,337.7,2598.1,337.7,2598.1,337.8z"/>
<path d="M2838.1,232.9c49.6,47.1,16.6,129.9-51,131.7c-16.2,0.4-35.4,0.5-57.5,0.3c-0.4,0-0.6,0.2-0.6,0.6v102
	c0,0.3-0.2,0.5-0.5,0.5h-49.8c-0.3,0-0.5-0.2-0.5-0.5V315.2c0-0.3,0.2-0.5,0.5-0.5c0,0,0,0,0,0c35.7,0,71.4,0,107.2,0
	c11.7,0,22.2-9.6,24.5-20.5c3.6-16.8-8.1-32.4-25.8-32.4c-35.3,0-70.6,0-105.9,0c-0.3,0-0.5-0.2-0.5-0.5l0,0v-49
	c0-0.3,0.2-0.5,0.5-0.5c35.3,0,70.7,0,106,0C2805.5,211.8,2823.2,218.8,2838.1,232.9z"/>
<path d="M2997.8,467.4c-49.9,6.9-96.8-25.1-105.1-75.1c-0.8-4.6-1.1-11.2-1.2-19.9c-0.1-53.3-0.1-106.7,0-160.1
	c0-0.3,0.2-0.5,0.5-0.5h49.7c0.3,0,0.5,0.2,0.5,0.5c0,54.1,0,108.2-0.1,162.2c0,9.2,2.4,17.8,7.3,25.8c0.6,1,1.4,1.9,2.3,2.4
	c0.3,0.2,0.5,0.4,0.6,0.7c1.3,2.9,3.6,3.5,5.5,5.6c3.2,3.5,9.4,6.3,13.9,7.6c25.6,7.7,52.4-11.9,52.4-39.1c0-55.1,0-110.2,0-165.3
	c0-0.3,0.2-0.5,0.5-0.5h49.7c0.3,0,0.5,0.2,0.5,0.5c0,53.2,0,106.3,0,159.5c0,9-0.3,15.7-1,19.9
	C3068.3,429.8,3036.2,462.1,2997.8,467.4z"/>
<path d="M3151.1,358.8c-17.9-8-34-24.2-41-42.3c-1.9-4.8-4.3-13.2-4.4-19.7c-0.1-3.8-1.3-7.1-0.8-10.9c0.4-3.7,0.7-5.6,0.7-5.6
	c2.1-33.9,30.9-62,63.2-67.4c4-0.7,10.6-1,19.9-1c28.2-0.1,56.5-0.1,84.7,0c0.3,0,0.5,0.2,0.5,0.5v49c0,0.3-0.2,0.5-0.5,0.5
	c-29.7,0-59.4,0-89.1,0c-4.6,0-8.1,0.4-10.6,1.3c-13.8,4.9-21.4,20-16.4,33.9c4.3,12.1,14.8,18.1,27.6,17.8
	c15.3-0.3,33.7-0.9,47.8,3.1c30.4,8.6,52.5,35.4,55.2,66.9c2.9,34-14.9,63.3-45.4,77.4c-5.8,2.7-16.9,5.9-25.3,5.9
	c-37.2,0-74.5,0-111.8,0c-0.3,0-0.5-0.2-0.5-0.5v-48.2c0-0.3,0.2-0.5,0.5-0.5c32.9,0,65.7,0,98.6,0c13.6,0,25.1-2.6,31.2-15.8
	c8.6-18.3-5-37.7-24.8-37.9c-10.2-0.1-20.5-0.2-30.7-0.4c-4.1-0.1-10.3-0.1-14.3-1.3C3160.5,362,3155.3,360.7,3151.1,358.8z"/>
<path d="M955,213.2h52.1c0.2,0,0.3,0.1,0.3,0.3c0,0,0,0.1,0,0.1l-91.8,255.6c0,0.1-0.2,0.2-0.3,0.2h-51.3c-0.1,0-0.3-0.1-0.3-0.2
	l-91.8-255.6c-0.1-0.2,0-0.3,0.2-0.4c0,0,0.1,0,0.1,0h52c0.1,0,0.3,0.1,0.3,0.2l64.6,184.9c0.1,0.2,0.2,0.3,0.4,0.2
	c0.1,0,0.2-0.1,0.2-0.2l64.9-184.9C954.7,213.3,954.8,213.2,955,213.2z"/>
<path d="M1036.8,213.2h50.2c0.1,0,0.3,0.1,0.3,0.3v255.7c0,0.1-0.1,0.3-0.3,0.3h-50.2c-0.1,0-0.3-0.1-0.3-0.3V213.5
	C1036.5,213.4,1036.6,213.2,1036.8,213.2z"/>
<path d="M1260.4,357l39.9,112.1c0.1,0.3,0,0.4-0.3,0.4h-51.7c-0.3,0-0.5-0.1-0.6-0.4l-37.1-102c-0.1-0.4-0.4-0.5-0.8-0.5h-92.6
	c-0.3,0-0.5-0.2-0.5-0.5v-49.3c0-0.3,0.2-0.5,0.5-0.5c35.7,0,71.5,0,107.3,0c3.6,0,7.2-0.9,10.7-2.7c24.7-12.7,15.9-50.3-12.1-50.3
	c-35.3,0-70.5,0-105.8,0c-0.3,0-0.5-0.2-0.5-0.5v-49c0-0.3,0.2-0.5,0.5-0.5c35.3,0,70.6-0.1,106-0.1c35.1,0,67.2,23.9,75.2,58.6
	c7.8,33.7-7.5,67.9-37.9,84.6C1260.3,356.6,1260.3,356.8,1260.4,357z"/>
<path d="M1396.4,263.2h-66.1c-0.2,0-0.3-0.1-0.3-0.3v-49.3c0-0.2,0.1-0.3,0.3-0.3h182.8c0.2,0,0.3,0.1,0.3,0.3l0.2,49.3
	c0,0.2-0.1,0.3-0.3,0.3h-65.4c-0.2,0-0.3,0.1-0.3,0.3l-0.2,205.6c0,0.2-0.1,0.3-0.3,0.3h-50.1c-0.2,0-0.3-0.1-0.3-0.3V263.6
	C1396.8,263.4,1396.6,263.3,1396.4,263.2z"/>
<path d="M1635.5,420.3l1.4-0.6c0.3-0.1,0.6-0.2,0.9-0.2c17.7,0,32.7-14.7,36.9-30.8c0.9-3.3,1.3-7.9,1.3-13.7
	c0-53.8,0-107.5,0-161.3c0-0.3,0.2-0.5,0.5-0.5h49.7c0.3,0,0.5,0.2,0.5,0.5c0,53,0,106,0,159c0,9.1-0.3,15.8-0.9,20
	c-2.4,16.4-9,31.1-20,44.1c-19.4,23-44.4,34-74.8,33c-43.2-1.5-80.4-34.5-86.7-77.3c-0.6-4.3-1-10.9-1-20
	c-0.1-52.9-0.1-105.9,0-158.8c0-0.3,0.2-0.5,0.5-0.5h49.7c0.3,0,0.5,0.2,0.5,0.5c0,50.7,0,101.5,0,152.2c0,9.6,0.4,16.2,1.1,19.9
	c3.3,16.6,13.5,27.6,30.8,33.1c2,0.6,7.9,0.1,8.8,1.1C1634.9,420.4,1635.2,420.4,1635.5,420.3z"/>
<path d="M1874.4,283.8c0-0.1-0.2-0.2-0.3-0.1c-0.1,0-0.1,0.1-0.1,0.1l-64.3,184.2c-0.1,0.3-0.2,0.6-0.2,1.1c0,0.1,0,0.2,0,0.3
	c0,0.1-0.1,0.2-0.2,0.2l-52.1,0c-0.4,0-0.5-0.2-0.4-0.6l91.4-255.1c0.1-0.4,0.4-0.6,0.9-0.6h50.6c0.4,0,0.7,0.2,0.9,0.6l91.3,254.7
	c0.1,0.4-0.1,0.8-0.4,0.9c-0.1,0-0.2,0-0.2,0h-51.1c-0.3,0-0.5-0.1-0.6-0.4L1874.4,283.8z"/>
<path d="M2219.9,252.3c0.4,0.4,0.4,1.1,0,1.5l-32.7,32.7c-0.3,0.2-0.5,0.3-0.8,0.1c-1.8-1-3.4-2.3-4.8-3.8c-0.2-0.2-0.5-0.4-0.8-0.5
	c-2-0.6-2-2.5-4.2-3.1c-0.3-0.1-0.6-0.3-0.8-0.5c-3.7-4.1-14.5-8.8-19.5-10.6c-44.6-15.4-90.5,8.4-102.9,53.5
	c-0.7,2.6-1.3,5.7-1.6,9.2c-1,10.4-1,20.3,1.7,30.8c6.7,25.6,28,47.8,53.6,55c27.7,7.8,56.1,0.7,76.8-19.1c0.9-0.9,1.8-1.5,2.7-1.9
	c0.2-0.1,0.5-0.1,0.6,0.1l32.8,33.5c0.6,0.7,0.6,1.3-0.1,1.9c-2.5,2.3-5.3,4.7-8.3,7.5c-30.8,28.1-74.4,37.1-114.4,27.2
	c-79.2-19.4-121-110-83.1-182.6c34-65.2,113.6-89.4,178.2-53.4C2203,235.8,2211.7,243.4,2219.9,252.3z"/>
<path d="M2284.6,469.5l-51.8,0c-0.2,0-0.3-0.1-0.3-0.3c0,0,0-0.1,0-0.1l91.6-255.6c0-0.1,0.2-0.2,0.3-0.2h51.4
	c0.1,0,0.3,0.1,0.3,0.2l91.6,255.6c0.1,0.2,0,0.4-0.2,0.4c0,0-0.1,0-0.1,0l-51.9,0c-0.1,0-0.3-0.1-0.3-0.2l-65-185.3
	c-0.1-0.2-0.3-0.3-0.4-0.2c-0.1,0-0.2,0.1-0.2,0.2l-64.7,185.3C2284.9,469.4,2284.8,469.5,2284.6,469.5z"/>
<path d="M50.2,220.8l13.7-0.1c4.7,0,8.5,3.8,8.6,8.5l0.1,13.7c0,4.7-3.8,8.5-8.5,8.6l-13.7,0.1c-4.7,0-8.5-3.8-8.6-8.5l-0.1-13.7
	C41.7,224.7,45.5,220.8,50.2,220.8z"/>
<path d="M148.6,229.2l38.3-0.1c3.6,0,6.6,2.9,6.6,6.6l0.1,38.4c0,3.6-2.9,6.6-6.6,6.6l-38.3,0.1c-3.6,0-6.6-2.9-6.6-6.6l-0.1-38.4
	C142,232.2,144.9,229.2,148.6,229.2z"/>
<path d="M493.5,323.2l-2.6,0.4c-0.4,0.1-0.6,0.3-0.5,0.7c5.1,19.9,18.2,34.2,31.3,51.2c0.5,0.7,0.6,1.5,0.2,2.2
	c-2.2,4.8-2.7,8.1-3.5,13.2c-1,5.9-4.5,6.4-10.2,8c-8.1,2.3-17.3,3.4-24.6,5.6c-10.6,3.2-21.3,7.6-31.4,10.7
	c-17.7,5.4-33.9,11.1-50.4,19.5c-30-36.4-50.7-77.1-67.8-118.8c-4-9.7-7.4-20.2-10.1-31.3c-2.3-9.3-4.7-16.8-7.5-25.2
	c-0.6-2-0.9-4-0.7-6c18.9-0.6,39.1-1.7,56.7,1c20.2,3,33.9,11,49.7,23.9c20.6,16.8,39.3,34.2,65,43.4
	C489.2,322.5,491.4,322.6,493.5,323.2z"/>
<path d="M315.8,253.5c-0.2,2,0.1,4,0.7,6c2.8,8.4,5.2,15.9,7.5,25.2c2.7,11.1,6.1,21.6,10.1,31.3c17.2,41.8,37.9,82.4,67.8,118.8
	l8.2,11.4c-3.2,5.7-7,7.8-13.7,9.5c-11.6,3-24.4,7-34.9,9.2c-17.6,3.8-35.7,5.9-53.6,8.1c-3.1,0.4-5.6,1-7.5,1.8
	c-1.1,0.5-8,4.1-8.1,5c0,0.4,0.1,0.6,0.5,0.4l4.6-1.6c1.3-0.5,1.4-0.3,0.2,0.5l-8.7,6c-41.3-57.8-70.9-121.1-88.9-189.8
	c-1.2-4.7-2.7-8.5-4.8-12.5c-0.3-0.5-0.4-1.4-0.4-2.8c14.6-0.3,29.2-0.4,43.8-0.2c2,0,3.6-0.8,4.9-2.5c0.2-0.3,0.3-0.6,0.3-0.9
	c0.1-3.2,0.2-8.8,0.1-16.8c0-4.2,3-6.2,7.2-6.2C272.8,253.5,294.3,253.5,315.8,253.5z"/>
<path d="M90.7,261.7l24.5,0.2c4.3,0,7.8,3.6,7.8,7.9l-0.2,23.8c0,4.3-3.6,7.8-7.9,7.8l-24.5-0.2c-4.3,0-7.8-3.6-7.8-7.9l0.2-23.8
	C82.9,265.1,86.4,261.7,90.7,261.7z"/>
<path d="M194.9,280.2c0,1.4,0.1,2.3,0.4,2.8c2.1,4,3.6,7.8,4.8,12.5c18,68.7,47.6,132,88.9,189.8c8.2,12.7,18.5,26.8,30.9,42.3
	c1.9,2.3,1.5,4.5-1,6.4c-34.8-11.7-69.5-23.8-104.1-36.5c-12.4-4.5-15.2-9.2-12.5-22c2.1-10.2,4-17.9,4.7-30.2
	c1.1-20.4-3.5-42.3-15.1-58.9c-1.3-1.9-4.2-5.4-8.5-10.4c-11.3-12.9-20.7-27.1-28.3-42.7c-0.3-0.6,0-1.3,0.5-1.6
	c0.2-0.1,0.4-0.1,0.5-0.1c7.5,0.2,29.1,3.1,33-6.2c0.7-1.5,0.9-4.4,0.6-8.6c-0.5-9.9-1.4-21.6,0.8-30.9
	C191.3,284,192.6,282.1,194.9,280.2z"/>
<path d="M493.5,323.2c5,0.5,10.2,1.4,15.1,1.6c15.4,0.7,30.9,0.9,46.4,0.5c0.6,0,1.1,0.3,1.3,0.8c7.6,17-17.1,22-27.6,24.5
	c-0.4,0.1-0.6,0.3-0.8,0.6c-0.9,1.8-1.2,3.7-0.9,5.7c-0.9,2.3-1.2,4.6-0.9,7c-0.4,4.3,0.3,8.2,2.4,11.8c2.6,4.6,0.8,10.3-2.3,14.2
	c-0.2,0.3-0.3,0.6-0.1,1c0.9,2,2.1,4,2.2,6.1c0.5,6.7-11,12.5-13.7,18.6c-3.2,7.3,0.6,14,3.2,20.9c3.7,9.9,3.5,19.4-0.6,28.5
	c-9.8,21.9-57.2,16.9-75.9,15l-4.9-0.8c-0.3-0.1-0.6-0.2-0.8-0.5L410,446.2l-8.2-11.4c16.6-8.4,32.7-14.1,50.4-19.5
	c10.1-3.1,20.8-7.4,31.4-10.7c7.3-2.2,16.4-3.3,24.6-5.6c5.8-1.6,9.3-2.1,10.2-8c0.8-5.1,1.2-8.5,3.5-13.2c0.4-0.8,0.3-1.5-0.2-2.2
	c-13-16.9-26.2-31.3-31.3-51.2c-0.1-0.4,0-0.6,0.5-0.7L493.5,323.2z"/>
<path class="st14" d="M527,357c0.1,2.4-0.2,4.7-0.9,7C525.8,361.6,526.1,359.3,527,357z"/>
<path d="M410,446.2l25.5,32.4c0.2,0.3,0.5,0.4,0.8,0.5l4.9,0.8c-2.7,0.1-5.4-0.3-7.9,0.7c-25.2,9.8-26,39.9-25.4,62.1
	c0.2,8.5-3.1,16.2-12.6,16.7c-2.7,0.1-7-0.8-12.9-2.8c-21.3-7.2-42.4-14.8-63.5-22.6c2.5-2,2.9-4.1,1-6.4
	c-12.4-15.4-22.8-29.5-30.9-42.3l8.7-6c1.2-0.8,1.1-1-0.2-0.5l-4.6,1.6c-0.4,0.1-0.6,0-0.5-0.4c0.1-0.9,7-4.5,8.1-5
	c1.9-0.8,4.4-1.4,7.5-1.8c17.9-2.2,36-4.3,53.6-8.1c10.5-2.2,23.2-6.3,34.9-9.2C403.1,454,406.8,452,410,446.2z"/>
</svg>
