{
  "accessors": [
    {
      "bufferView": 1,
      "componentType": 5126,
      "count": 46419,
      "max": [
        100.99199676513672,
        69.88306427001953,
        149.96881103515625
      ],
      "min": [
        -101.19691467285156,
        -69.71806335449219,
        0.7017783522605896
      ],
      "type": "VEC3"
    },
    {
      "bufferView": 1,
      "byteOffset": 557028,
      "componentType": 5126,
      "count": 46419,
      "max": [
        0.9999879598617554,
        1.0,
        1.0
      ],
      "min": [
        -0.9999954700469971,
        -1.0,
        -1.0
      ],
      "type": "VEC3"
    },
    {
      "bufferView": 0,
      "componentType": 5125,
      "count": 253998,
      "type": "SCALAR"
    }
  ],
  "asset": {
    "extras": {
      "author": "trirom (https://sketchfab.com/trirom)",
      "license": "CC-BY-4.0 (http://creativecommons.org/licenses/by/4.0/)",
      "source": "https://sketchfab.com/3d-models/scull-geant-fix02-28fb553644a1466daca78629e617e77a",
      "title": "Scull Geant Fix02"
    },
    "generator": "Sketchfab-15.27.0",
    "version": "2.0"
  },
  "bufferViews": [
    {
      "buffer": 0,
      "byteLength": 1015992,
      "name": "floatBufferViews",
      "target": 34963
    },
    {
      "buffer": 0,
      "byteLength": 1114056,
      "byteOffset": 1015992,
      "byteStride": 12,
      "name": "floatBufferViews",
      "target": 34962
    }
  ],
  "buffers": [
    {
      "byteLength": 2130048,
      "uri": "scene.bin"
    }
  ],
  "materials": [
    {
      "doubleSided": true,
      "name": "Scene_-_Root",
      "pbrMetallicRoughness": {
        "baseColorFactor": [
          0.5,
          0.5,
          0.5,
          1.0
        ],
        "metallicFactor": 0.0,
        "roughnessFactor": 0.9
      }
    }
  ],
  "meshes": [
    {
      "name": "Object_0",
      "primitives": [
        {
          "attributes": {
            "NORMAL": 1,
            "POSITION": 0
          },
          "indices": 2,
          "material": 0,
          "mode": 4
        }
      ]
    }
  ],
  "nodes": [
    {
      "children": [
        1
      ],
      "matrix": [
        1.0,
        0.0,
        0.0,
        0.0,
        0.0,
        2.220446049250313e-16,
        -1.0,
        0.0,
        0.0,
        1.0,
        2.220446049250313e-16,
        0.0,
        0.0,
        0.0,
        0.0,
        1.0
      ],
      "name": "Sketchfab_model"
    },
    {
      "children": [
        2
      ],
      "name": "b7c8693cbf304c919a6ea2e7ff7ed25a.stl.cleaner.materialmerger.gles"
    },
    {
      "mesh": 0,
      "name": "Object_2"
    }
  ],
  "scene": 0,
  "scenes": [
    {
      "name": "Sketchfab_Scene",
      "nodes": [
        0
      ]
    }
  ]
}
